<?xml version="1.0" encoding="utf-8"?>
<!-- Generator: Adobe Illustrator 21.0.2, SVG Export Plug-In . SVG Version: 6.00 Build 0)  -->
<svg version="1.1" id="Layer_1" xmlns="http://www.w3.org/2000/svg" xmlns:xlink="http://www.w3.org/1999/xlink" x="0px" y="0px"
	 viewBox="0 0 347.3 298" style="enable-background:new 0 0 347.3 298;" xml:space="preserve">
<style type="text/css">
	.st0{fill:#2a9f00;}
	.st1{display:none;fill:#00FF77;}
</style>
<image style="display:none;overflow:visible;" width="191" height="148" xlink:href="Image Pasted at 2018-12-8 13-40.png"  transform="matrix(2.6073 0 0 2.6073 -65.6451 -50.521)">
</image>
<g>
	<polygon class="st0" points="125.3,152.6 116.5,143.8 172.9,87.6 229.3,143.8 220.4,152.6 179.1,111.3 179.1,294.3 166.6,294.3 
		166.6,111.3 	"/>
	<path class="st0" d="M282.1,94.5c0-0.9,0.2-1.8,0.2-2.7c0-48.7-40-88.1-88.4-88.1c-34.9,0-64.9,20.5-79,50.2
		c-6.1-3.1-12.9-4.8-20.3-4.8c-22.4,0-40.9,17.9-44.6,39.4c-26.6,9.2-45.9,35.3-45.9,65.3C4.1,191.3,34.5,222,72,222h69.1v-12.1
		H72.6c-31,0-56.2-25.4-56.2-56.5c0-24.1,15.3-46.3,38-54.2l6.4-2.2l1.1-6.7C64.6,74,78.6,60.6,95.1,60.6c5.2,0,10.4,1.2,15.1,3.6
		l10.2,5.1l4.9-10.4c12.6-26.4,39.4-43.4,68.4-43.4c41.8,0,76.4,32.8,76.4,74.8c0,10.1-0.2,15.4-0.2,15.4l11.5,0.1
		c27.7,0.4,49.6,25.3,49.6,53.2c0,27.8-22.6,50.6-50.3,50.8h-2.4h-73.7V222h76.5l0,0c34.1,0,62.1-28.2,62.1-62.7
		S316.3,94.6,282.1,94.5z"/>
</g>
<rect x="141.1" y="70.6" class="st1" width="25.5" height="5.6"/>
<rect x="179.1" y="70.6" class="st1" width="25.5" height="5.6"/>
</svg>
