<svg id="Layer_1" data-name="Layer 1" xmlns="http://www.w3.org/2000/svg" viewBox="0 0 100 100"><defs><style>.cls-1{fill:#2a9f00;stroke-width:2px;}.cls-1,.cls-2{stroke:#2a9f00;stroke-miterlimit:10;}.cls-2{fill:none;stroke-width:5.5px;}</style></defs><title>1</title><path class="cls-1" d="M58.11,36.88H20.54a1.5,1.5,0,0,0,0,3H58.11a1.5,1.5,0,1,0,0-3Z"/><path class="cls-1" d="M20.54,27.86h15a1.5,1.5,0,0,0,0-3h-15a1.5,1.5,0,1,0,0,3Z"/><path class="cls-1" d="M58.11,48.9H20.54a1.5,1.5,0,1,0,0,3H58.11a1.5,1.5,0,1,0,0-3Z"/><path class="cls-1" d="M51.11,60.93H20.54a1.5,1.5,0,1,0,0,3H51.11a1.5,1.5,0,1,0,0-3Z"/><path class="cls-1" d="M48.11,73H20.54a1.5,1.5,0,1,0,0,3H48.11a1.5,1.5,0,0,0,0-3Z"/><path class="cls-1" d="M74.52,59.25h.13V25.73L52.72,3.81H4V94H73.71l.94-1.75h-.13A16.38,16.38,0,0,1,68.2,91H7V6.81H50.6v21h21V59.51A16.06,16.06,0,0,1,74.52,59.25ZM53.61,24.85V8.94L69.52,24.85Z"/><circle class="cls-2" cx="73.52" cy="75.77" r="16.5"/><polygon class="cls-1" points="70.17 78.86 66.31 75 64.67 76.64 69.48 81.45 69.48 81.45 70.2 82.17 81.33 71.04 79.66 69.37 70.17 78.86"/></svg>