<?xml version="1.0" encoding="utf-8"?>
<!-- Generator: Adobe Illustrator 24.1.2, SVG Export Plug-In . SVG Version: 6.00 Build 0)  -->
<svg version="1.1" id="Layer_1" xmlns="http://www.w3.org/2000/svg" xmlns:xlink="http://www.w3.org/1999/xlink" x="0px" y="0px"
	 viewBox="0 0 68 55" style="enable-background:new 0 0 68 55;" xml:space="preserve">
<style type="text/css">
	.st0{fill:#404041;}
</style>
<path class="st0" d="M13.6,40.8l4.8,10.7c1,2.3,3.8,3.4,6.2,2.4c2.3-1,3.4-3.8,2.4-6.2L24,41.3l3.2-1.4c0.6-0.3,0.9-1,0.6-1.5
	l-1.2-2.8c0.2,0,1.4-0.1,22.6-2c2.6,0.1,4.4-2.5,3.4-4.9l-3.2-7.1l2.8-3.5c0.3-0.3,0.3-0.8,0.2-1.2l-1.9-4.3c-0.2-0.4-0.6-0.7-1-0.7
	l-4.5-0.2l-3.5-7.8C41,2.8,40,2,38.8,1.8c0,0,0,0,0,0c-1.2-0.1-2.3,0.4-3.1,1.3L18.5,20.8L8.1,25.5c-4.1,1.8-6,6.7-4.1,10.8
	C5.6,40,9.8,41.9,13.6,40.8z M24.8,48.6c0.5,1.2,0,2.6-1.2,3.1c-1.2,0.5-2.6,0-3.1-1.2l-4.7-10.6L20,38
	C25.5,50.3,24.7,48.4,24.8,48.6z M23.1,39.2l-0.9-2.1l2.1-0.9l0.9,2.1L23.1,39.2z M48.7,14.2l1.3,2.9l-1.7,2l-2.3-5.1L48.7,14.2z
	 M37.4,4.6c0.4-0.5,0.9-0.5,1.1-0.5c0.2,0,0.7,0.1,0.9,0.7l11,24.7c0.4,0.8-0.3,1.7-1.2,1.6c-0.2,0-0.2,0-0.6,0L37,5.1
	C37.3,4.7,37.4,4.7,37.4,4.6z M35.2,6.9l11,24.6l-20.6,1.9l-5-11.3L35.2,6.9z M6.1,35.3c-0.4-0.9-0.6-2-0.5-3
	c0.2-2.1,1.5-3.9,3.4-4.7l9.6-4.3L23.3,34l-9.6,4.3C10.8,39.6,7.4,38.2,6.1,35.3z"/>
<path class="st0" d="M64.1,7l-6.8,2.9c-0.6,0.3-0.9,0.9-0.6,1.5c0.3,0.6,0.9,0.9,1.5,0.6L65,9.1c0.6-0.3,0.9-0.9,0.6-1.5
	C65.4,7,64.7,6.7,64.1,7z"/>
<path class="st0" d="M62.2,18.9l-4.4-1.7c-0.6-0.2-1.3,0.1-1.5,0.7c-0.2,0.6,0.1,1.3,0.7,1.5l4.4,1.7c0.6,0.2,1.3-0.1,1.5-0.7
	C63.1,19.8,62.8,19.1,62.2,18.9z"/>
<path class="st0" d="M52.6,1.5l-1.7,4.4c-0.2,0.6,0.1,1.3,0.7,1.5c0.6,0.2,1.3-0.1,1.5-0.7l1.7-4.4c0.2-0.6-0.1-1.3-0.7-1.5
	C53.5,0.6,52.8,0.9,52.6,1.5z"/>
</svg>
