<?xml version="1.0" standalone="no"?>
<!DOCTYPE svg PUBLIC "-//W3C//DTD SVG 20010904//EN"
 "http://www.w3.org/TR/2001/REC-SVG-20010904/DTD/svg10.dtd">
<svg version="1.0" xmlns="http://www.w3.org/2000/svg"
 width="35.000000pt" height="25.000000pt" viewBox="0 0 512.000000 512.000000"
 preserveAspectRatio="xMidYMid meet">

<g transform="translate(0.000000,512.000000) scale(0.100000,-0.100000)"
fill="#000000" stroke="none">
<path d="M3368 5106 c-25 -18 -37 -57 -27 -84 5 -13 50 -65 100 -115 158 -157
293 -340 395 -532 26 -49 56 -100 67 -112 38 -42 109 -20 122 38 5 20 -6 51
-45 125 -108 209 -301 467 -464 622 -79 75 -110 87 -148 58z"/>
<path d="M2249 4907 c-101 -34 -168 -95 -219 -197 -12 -25 -24 -47 -26 -49 -2
-2 -22 13 -45 33 -67 57 -138 80 -244 81 -81 0 -97 -4 -157 -32 -81 -38 -146
-102 -185 -181 -25 -51 -28 -67 -28 -162 0 -87 4 -113 22 -152 24 -52 19 -58
-37 -58 -56 0 -139 -40 -198 -95 -129 -119 -163 -296 -87 -451 14 -28 54 -89
89 -136 l65 -86 -59 -6 c-162 -18 -292 -149 -322 -324 -10 -59 -9 -79 5 -138
10 -38 30 -89 45 -114 35 -56 1126 -1525 1160 -1562 33 -36 80 -38 110 -5 37
39 28 67 -51 174 -40 54 -301 404 -579 778 -278 374 -513 696 -523 715 -23 43
-23 140 -1 191 30 72 101 125 181 136 68 9 129 -13 185 -66 27 -25 193 -242
370 -481 177 -239 334 -447 348 -462 33 -36 74 -37 107 -3 14 13 25 35 25 49
0 17 -112 175 -352 498 -629 845 -666 897 -678 934 -7 20 -10 64 -8 99 5 75
37 131 100 172 37 25 51 28 123 28 73 0 86 -3 124 -28 32 -21 121 -133 344
-434 724 -971 659 -888 695 -891 51 -5 82 20 82 66 0 33 -56 112 -551 777
-303 407 -560 758 -570 780 -35 75 -20 180 33 241 48 55 102 78 179 79 124 0
90 39 751 -850 323 -434 597 -794 609 -801 48 -25 118 28 105 79 -3 14 -229
325 -501 691 -272 366 -505 684 -516 706 -14 27 -21 59 -21 98 0 159 149 268
298 218 63 -21 97 -51 173 -153 64 -85 84 -103 121 -103 28 0 70 43 70 73 0
35 -144 223 -205 270 -100 75 -235 95 -356 54z"/>
<path d="M3143 4738 c-12 -6 -27 -23 -33 -38 -15 -36 -6 -54 77 -145 86 -95
171 -211 234 -317 61 -102 70 -111 110 -111 38 0 72 33 72 71 0 67 -224 388
-356 510 -48 43 -66 48 -104 30z"/>
<path d="M2894 4354 c-20 -19 -25 -33 -22 -57 3 -23 143 -220 517 -722 282
-379 523 -701 536 -714 29 -30 78 -32 106 -5 15 15 24 53 40 158 38 261 117
523 223 741 70 142 120 208 194 251 41 25 57 29 127 29 87 0 151 -24 197 -72
31 -33 27 -94 -17 -238 -99 -322 -115 -379 -139 -496 -41 -200 -59 -376 -52
-520 7 -143 28 -237 80 -357 53 -118 76 -220 83 -352 10 -195 -17 -301 -108
-441 -74 -113 -75 -152 -5 -179 33 -12 61 0 95 42 l23 29 55 -73 c66 -87 83
-124 83 -177 0 -82 -21 -111 -157 -212 -98 -72 -115 -99 -94 -145 13 -30 52
-49 83 -41 27 7 177 117 226 167 53 53 84 125 90 207 7 105 -9 149 -101 277
-44 61 -81 116 -84 123 -2 6 5 56 17 110 49 217 35 464 -37 648 -19 50 -46
118 -59 153 -79 207 -39 610 106 1068 125 394 109 491 -100 592 -63 30 -88 37
-158 40 -140 8 -242 -37 -350 -152 -103 -111 -239 -416 -311 -701 -16 -66 -33
-138 -37 -160 -4 -22 -10 -46 -13 -53 -4 -7 -187 230 -470 610 -255 343 -473
628 -485 635 -32 19 -55 15 -82 -13z"/>
<path d="M523 2790 c-25 -10 -43 -39 -43 -71 0 -26 100 -197 170 -290 69 -92
196 -231 225 -247 49 -25 105 12 105 69 0 20 -21 50 -77 111 -96 104 -179 216
-245 328 -30 52 -61 93 -75 99 -28 13 -31 13 -60 1z"/>
<path d="M80 2660 c-34 -34 -25 -76 41 -195 122 -221 260 -404 431 -572 98
-97 131 -111 172 -70 46 46 37 66 -91 201 -175 182 -306 364 -407 563 -20 40
-45 77 -55 83 -31 16 -69 12 -91 -10z"/>
<path d="M2265 1108 c-29 -17 -44 -40 -45 -67 0 -34 159 -247 260 -347 150
-148 277 -227 480 -299 141 -50 198 -91 296 -211 88 -109 151 -155 239 -175
69 -15 152 -4 218 29 76 40 787 572 800 599 25 55 -35 118 -90 97 -15 -6 -190
-131 -388 -279 -198 -147 -380 -277 -404 -288 -87 -39 -165 -8 -246 98 -114
149 -199 211 -376 273 -121 43 -212 90 -304 160 -102 76 -163 139 -269 282
-102 136 -126 154 -171 128z"/>
</g>
</svg>
