<svg id="Layer_1" data-name="Layer 1" xmlns="http://www.w3.org/2000/svg" viewBox="0 0 1000 771"><defs><style>.cls-1{fill:#fedeaf;}.cls-2,.cls-6{fill:#3d3d62;}.cls-3{fill:#f57171;}.cls-4{fill:#98ddfd;}.cls-5{fill:#7bdeb5;}.cls-6{font-size:351.16px;stroke:#3d3d62;stroke-miterlimit:10;stroke-width:10px;font-family:MyriadPro-Bold, Myriad Pro;font-weight:700;}.cls-7{fill:#fec576;}.cls-8{fill:#ee4f50;}.cls-9{fill:#6cbaf7;}</style></defs><title>fill</title><path class="cls-1" d="M250.72,519.94V724.7c0,11.42-10.87,20.77-24.16,20.77H182.22c-13.29,0-24.16-9.35-24.16-20.77V599.56Z"/><path class="cls-2" d="M244.72,519.94V696.36c0,9.09.08,18.18,0,27.27-.07,7.65-5.38,13.19-12.67,15.13-6,1.6-13.24.7-19.4.7H186c-8.23,0-17.58-1.6-21.07-10.28-1.33-3.32-.85-7.49-.85-11V599.56l-1.76,4.24,81.17-69.75L255,524.18c5.87-5-2.65-13.5-8.49-8.49l-88.17,75.76c-3.37,2.89-6.14,4.72-6.25,9.57-.16,7.31,0,14.65,0,22v99c0,11.53,5.37,21.41,16.18,26.4,9.9,4.57,22.07,3.09,32.69,3.09,9.83,0,20.18.94,30-.34,14.1-1.84,25.52-12.51,25.83-27.06.1-4.51,0-9,0-13.53V519.94C256.72,512.21,244.72,512.2,244.72,519.94Z"/><path class="cls-3" d="M334.62,447.85l29.7,25.52V724.7c0,11.42-10.87,20.77-24.16,20.77H295.82c-13.29,0-24.16-9.34-24.16-20.77V501.94Z"/><path class="cls-2" d="M330.38,452.09l29.7,25.52-1.76-4.24V709.71c0,4.56,0,9.11,0,13.67-.07,10.17-8.82,15.89-18.42,16.09-10.35.21-20.73,0-31.09,0s-24.56,1.85-29.93-9.45c-1.73-3.65-1.23-8.15-1.23-12.1v-216l-1.76,4.24,63-54.1c5.87-5-2.65-13.5-8.49-8.49l-56.89,48.88c-2.31,2-6.08,4.22-7.31,7.15-.71,1.69-.52,3.64-.52,5.45V706.4c0,6-.13,11.92,0,17.87.4,17.64,16.14,27.19,32.35,27.19,13.54,0,27.07.05,40.61,0,16.08-.07,31.35-10,31.71-27.29s0-34.69,0-52V492.64c0-6.09.22-12.23,0-18.32-.11-3-1.42-4.9-3.62-6.79L350,453.15l-11.11-9.55C333,438.6,324.51,447,330.38,452.09Z"/><path class="cls-4" d="M472.38,566.21l5.54-4.76V724.7c0,11.42-10.87,20.77-24.16,20.77H409.42c-13.29,0-24.16-9.34-24.16-20.77V491.36Z"/><path class="cls-2" d="M476.62,570.46l5.54-4.76-10.24-4.24V713.87c0,3.56.14,7.14,0,10.7-.41,10.77-11,14.9-20.35,14.9H421.51c-8.56,0-18.44,1.34-25.39-4.76-7.15-6.28-4.86-19-4.86-27.56V526.52c0-11.1.76-22.49,0-33.57,0-.52,0-1.06,0-1.59L381,495.6l76.36,65.61,10.76,9.25c5.83,5,14.35-3.44,8.49-8.49l-76.36-65.61-10.76-9.25c-3.82-3.28-10.24-1.24-10.24,4.24v228.2c0,3.91-.18,7.84.9,11.65,7.28,25.59,40.41,20.25,60.61,20.25,9.8,0,19.82.87,28.78-4a27.09,27.09,0,0,0,14.38-24.32c.09-14.59,0-29.18,0-43.77V561.45c0-5.49-6.42-7.53-10.24-4.24L468.14,562C462.27,567,470.79,575.47,476.62,570.46Z"/><path class="cls-1" d="M498.86,543.46l92.66-79.62V724.7c0,11.42-10.87,20.77-24.16,20.77H523c-13.29,0-24.16-9.34-24.16-20.77Z"/><path class="cls-2" d="M503.1,547.7,584.27,478l11.49-9.87-10.24-4.24V689.76c0,11.27.1,22.55,0,33.82-.09,10-8.89,15.69-18.28,15.88s-19,0-28.43,0c-9.18,0-21.12,1.85-28.71-4.42-5.14-4.25-5.25-9.45-5.25-15.35V543.46c0-7.72-12-7.73-12,0V714.83c0,3.49-.14,7,0,10.5.76,16.39,15.9,26,31.14,26.14,10.71.08,21.42,0,32.13,0,11.87,0,23.49.34,33-8.28,10.37-9.41,8.37-23.44,8.37-36V573.39c0-35.91.55-71.86,0-107.76,0-.59,0-1.19,0-1.78,0-5.49-6.42-7.53-10.24-4.24l-81.17,69.74-11.49,9.87C488.75,544.26,497.27,552.71,503.1,547.7Z"/><path class="cls-3" d="M705.12,366.24V724.7c0,11.42-10.87,20.77-24.16,20.77H636.62c-13.29,0-24.16-9.34-24.16-20.77V445.85Z"/><path class="cls-2" d="M699.12,366.24V677.76c0,15.27.12,30.55,0,45.82a14.17,14.17,0,0,1-3.51,9.77c-5.09,5.72-12.26,6.11-19.33,6.11-13.19,0-26.4.27-39.59,0-8.66-.18-17.86-5.34-18.23-14.83-.05-1.29,0-2.6,0-3.89V445.85l-1.76,4.24,81.17-69.74,11.49-9.87c5.87-5-2.65-13.5-8.49-8.49L630.69,422.3,614,436.64c-3,2.6-7.08,4.94-7.54,9.21-.58,5.45,0,11.29,0,16.76V715.74c0,10.95.3,21.05,10,28.75,7.77,6.2,16.76,7,26.23,7H671c8.67,0,17.09.39,25.11-3.67a26.9,26.9,0,0,0,15-23.4c.46-18.3,0-36.66,0-55V366.24C711.12,358.52,699.12,358.5,699.12,366.24Z"/><path class="cls-4" d="M818.72,370.29V724.7c0,11.42-10.87,20.77-24.16,20.77H750.22c-13.29,0-24.16-9.34-24.16-20.77V348.25l33.51-28.78Z"/><path class="cls-2" d="M812.72,370.29v341.5c0,4.29.17,8.61,0,12.9-.78,19.28-29.65,14.78-42.31,14.78-12.42,0-37.66,3.59-38.35-14.92-.17-4.61,0-9.25,0-13.86V348.25l-1.76,4.24,33.51-28.78h-8.49l59.15,50.82c5.83,5,14.35-3.44,8.49-8.49l-59.15-50.82a6.19,6.19,0,0,0-8.49,0L739.7,328.65c-5.73,4.93-12.48,9.56-17.61,15.13-3.3,3.58-2,10.7-2,15.2V676.18c0,16.14-.52,32.38,0,48.51.48,14.88,13,25.25,27.25,26.62,7.12.68,14.48.15,21.62.15,19,0,46,3.88,54.29-18.52,2.24-6,1.51-13.24,1.51-19.58V370.29C824.72,362.56,812.72,362.55,812.72,370.29Z"/><polygon class="cls-5" points="144 567.21 116.44 536.86 332.36 340.8 471.63 466.65 749.74 225.16 784.02 192.58 811.72 222.8 776.83 255.94 471.09 521.42 332.42 396.12 144 567.21"/><path class="cls-2" d="M148.25,563l-27.56-30.35v8.49l73-66.32L310,369.17,336.6,345h-8.49l47,42.51,75,67.77,17.24,15.58a6.17,6.17,0,0,0,8.49,0l34.64-30.07,79.64-69.16,89.6-77.8,63.3-55c14.19-12.32,27.64-25.38,41.27-38.33l3.94-3.75h-8.49L807.48,227v-8.49c-14.3,13.58-28.34,27.45-43.24,40.38l-64.52,56-96.57,83.86-90.22,78.34-30.55,26.53c-4.83,4.2-10.56,8.17-14.87,12.92a7.65,7.65,0,0,1-.66.58h8.49l-46.76-42.25-74.64-67.44-17.27-15.61a6.15,6.15,0,0,0-8.49,0l-63.64,57.78L163.09,541.79,139.76,563c-5.73,5.2,2.78,13.67,8.49,8.49l63.64-57.78,101.46-92.13,23.33-21.18h-8.49l46.76,42.25,74.64,67.44,17.27,15.61a6.17,6.17,0,0,0,8.49,0l37.49-32.55,86.87-75.43,97.84-85,70.41-61.14c14.93-13,29.14-26.6,43.49-40.23L816,227a6.11,6.11,0,0,0,0-8.49l-27.71-30.22c-2.23-2.43-6.21-2.16-8.49,0-13.55,12.88-26.81,26.1-40.93,38.37L681.2,276.76l-88.31,76.68-82.75,71.85L481.7,450c-4.45,3.86-9.76,7.52-13.71,11.91a6.72,6.72,0,0,1-.6.52h8.49l-47-42.51-75-67.77L336.6,336.56a6.15,6.15,0,0,0-8.49,0l-73,66.32L138.77,508.49,112.2,532.62c-2.48,2.25-2.1,6.18,0,8.49l27.56,30.35C145,577.19,153.43,568.68,148.25,563Z"/><polygon class="cls-5" points="721.72 123.25 876.55 292.14 883.56 130.3 721.72 123.25"/><path class="cls-2" d="M717.48,127.49l52.18,56.91,83.55,91.14,19.1,20.84c3.68,4,10,.7,10.24-4.24L888.7,150l.85-19.74c.14-3.34-2.87-5.86-6-6l-142.1-6.19-19.74-.86c-7.72-.34-7.71,11.66,0,12l142.1,6.19,19.74.86-6-6-6.15,142.1-.85,19.74,10.24-4.24L828.62,231l-83.55-91.14L726,119C720.73,113.3,712.26,121.81,717.48,127.49Z"/><text class="cls-6" transform="translate(373.26 319.46)">$</text><path class="cls-7" d="M244.72,644V710.7c0,4.64,0,9.28,0,13.92-.07,8.17-6.18,13.94-14,15.46-5.31,1-11.29.38-16.66.38H189c-8.05,0-16.63.15-22.12-6.95-4-5.22-3.15-13.45-2.86-20.16L243.47,645Z"/><path class="cls-8" d="M358.32,722.16c0,2.71.18,5.45-.85,8-3,7.52-11.22,10.24-18.66,10.28-13.08.08-26.16,0-39.23,0-11.2,0-21.92-4.25-21.92-16.93V615.68l57-49,23.7,20.37Z"/><path class="cls-9" d="M471.92,724.54c-.09,11.27-10.36,15.92-20.35,15.92H420.19c-9.6,0-21.34,1.24-27.11-8.37-2.63-4.39-1.82-10.33-1.82-15.26V615.4l66.11,56.81,10.77,9.25a6,6,0,0,0,3.79,1.52C472,696.83,472,710.69,471.92,724.54Z"/><path class="cls-7" d="M584.27,589l1.25-1.07V704.15c0,6.84.06,13.68,0,20.52-.12,11.84-11.22,15.79-21.35,15.79H526.78c-10.85,0-21.86-4-21.92-16.52-.11-22.25,0-44.5,0-66.75Z"/><path class="cls-8" d="M699.12,692.52c0,10.71.09,21.43,0,32.15-.09,9.91-8.91,15.59-18.19,15.79-8.53.19-17.08,0-25.6,0-8.18,0-19,1.64-26.82-1.54-7.44-3-10-9.16-10-16.5V559.59l79.41-68.23,1.25-1.07Z"/><path class="cls-9" d="M759.57,438.35,812.72,484V722.45c0,1.06,0,2.13,0,3.2-.31,7.71-6.81,13-14,14.43-3.85.75-8.1.38-12,.38H766c-10.64,0-25.67,2.39-32.14-8.37-2.33-3.89-1.82-8.47-1.82-12.81V462Z"/></svg>