<svg id="Layer_35" enable-background="new 0 0 64 64" height="512" viewBox="0 0 64 64" width="512" xmlns="http://www.w3.org/2000/svg"><path d="m44 48h18v14h-18z" fill="#cf9e76"/><path d="m26 48h18v14h-18z" fill="#cf9e76"/><path d="m35 34h18v14h-18z" fill="#cf9e76"/><path d="m2 39h18v14h-18z" fill="#cf9e76"/><path d="m58 27c0 5.63-1.86 10.82-5 15v-8h-2.33c.86-2.17 1.33-4.53 1.33-7 0-10.49-8.51-19-19-19s-19 8.51-19 19h2l-5 8-5-8h2c0-13.81 11.19-25 25-25s25 11.19 25 25z" fill="#fcd770"/><path d="m45 19-19 19-7-7 3-3 4 4 16-16z" fill="#b4dd7f"/><g fill="#b27946"><path d="m8 39h6v4h-6z"/><path d="m8 49h6v4h-6z"/><path d="m50 58h6v4h-6z"/><path d="m56 48v4h-6v-4h3z"/><path d="m47 44v4h-3-3v-4z"/><path d="m41 34h6v4h-6z"/><path d="m32 58h6v4h-6z"/><path d="m38 48v4h-6v-4h3z"/></g><path d="m54 47v-4.687c3.266-4.469 5-9.752 5-15.313 0-14.336-11.663-26-26-26-14.001 0-25.453 11.125-25.981 25h-2.824l6.805 10.887 6.805-10.887h-2.777c.52-9.462 8.382-17 17.972-17 9.925 0 18 8.075 18 18 0 2.064-.363 4.076-1.044 6h-15.956v14h-9v16h18 2 18v-16zm-3 2h4v2h-4zm-18-42c-11.028 0-20 8.972-20 20v1h1.195l-3.195 5.113-3.195-5.113h1.195v-1c0-13.234 10.767-24 24-24s24 10.766 24 24c0 4.118-1.038 8.068-3 11.601v-5.601h-1.932c.609-1.935.932-3.945.932-6 0-11.028-8.972-20-20-20zm9 28h4v2h-4zm-6 0h4v4h8v-4h4v12h-4v-4h-8v4h-4zm-3 14h4v2h-4zm4 12h-4v-2h4zm6 0h-4v-4h-8v4h-4v-12h4v4h8v-4h4zm0-14h-1v-2h4v2h-1zm12 14h-4v-2h4zm6 0h-4v-4h-8v4h-4v-12h4v4h8v-4h4z"/><path d="m1 54h20v-16h-20zm12-2h-4v-2h4zm-4-12h4v2h-4zm-6 0h4v4h8v-4h4v12h-4v-4h-8v4h-4z"/><path d="m46.414 19-4.414-4.414-16 16-4-4-4.414 4.414 8.414 8.414zm-24.414 10.414 4 4 16-16 1.586 1.586-17.586 17.586-5.586-5.586z"/></svg>