<?xml version="1.0" encoding="utf-8"?>
<!-- Generator: Adobe Illustrator 21.0.2, SVG Export Plug-In . SVG Version: 6.00 Build 0)  -->
<svg version="1.1" id="Layer_1" xmlns="http://www.w3.org/2000/svg" xmlns:xlink="http://www.w3.org/1999/xlink" x="0px" y="0px"
	 viewBox="0 0 512 512" style="enable-background:new 0 0 512 512;" xml:space="preserve">
<style type="text/css">
	.st0{fill:#5A4146;}
	.st1{fill:#694B4B;}
	.st2{fill:#E6AF78;}
	.st3{fill:#D29B6E;}
	.st4{fill:#D5DCED;}
	.st5{fill:#F0C087;}
	.st6{fill:#C7CFE2;}
	.st7{fill:#AFB9D2;}
	.st8{fill:#959CB5;}
	.st9{fill:#FF507D;}
	.st10{fill:#707487;}
	.st11{fill:#5B5D6E;}
	.st12{fill:#D23C69;}
</style>
<g>
	<path class="st0" d="M503.2,393.8c-7-18.5-12.5-50.2-13.7-66.7c-2.3-31.4-26-57.1-58-57.1s-55.7,25.6-58,57.1
		c-1.2,16.5-6.7,48.2-13.7,66.7c-1.5,4.1,0.2,8.6,4.2,10.4c7.5,3.4,23.4,10,42.6,12.6h49.7c19.1-2.6,35.1-9.2,42.6-12.6
		C503,402.3,504.7,397.8,503.2,393.8z"/>
	<path class="st1" d="M498.9,404.1c4-1.8,5.8-6.3,4.2-10.4c-7-18.5-12.5-50.2-13.7-66.7c-2.3-31.4-26-57.1-58-57.1
		c-0.1,0-0.2,0-0.2,0c-24.6,0.1-33.3,33.6-12.1,46.1c1.3,0.8,2.1,1.1,2.1,1.1l18.5,99.5h16.6C475.5,414.1,491.5,407.5,498.9,404.1z"
		/>
	<path class="st2" d="M490.5,433.1l-26.4-13.2c-5.5-2.8-9-8.4-9-14.6l0-24.5h-48.9v24.5c0,6.2-3.5,11.8-9,14.6l-26.4,13.2
		c-8.3,4.1-13.5,12.6-13.5,21.9v48.2c0,4.5,3.6,8.2,8.2,8.2h130.4c4.5,0,8.2-3.6,8.2-8.2V455C504,445.7,498.8,437.2,490.5,433.1z"/>
	<path class="st3" d="M430.6,413.5c8.8,0,17.2-1.8,24.9-5c-0.2-1-0.4-2-0.4-3.1l0-24.5h-48.9v24.5c0,1.1-0.2,2.1-0.4,3.1
		C413.5,411.7,421.9,413.5,430.6,413.5z"/>
	<path class="st4" d="M490.5,433.1l-18.8-9.4c-8.7,13.5-23.8,22.4-41,22.4s-32.3-8.9-41-22.4l-18.8,9.4
		c-8.3,4.1-13.5,12.6-13.5,21.9v48.2c0,4.5,3.6,8.2,8.2,8.2h130.4c4.5,0,8.2-3.6,8.2-8.2V455C504,445.7,498.8,437.2,490.5,433.1z"/>
	<path class="st5" d="M430.6,397.2L430.6,397.2c-24.9,0-45.4-18.6-48.5-42.6c-0.5-3.5,1.2-6.9,4.4-8.5c3.8-1.9,9.2-5.1,14.4-9.7
		c5.8-5.2,9.2-10.7,11.2-14.7c1.7-3.5,5.5-5.4,9.2-4.5c28.7,7.3,48.2,22.2,55.3,28.3c1.9,1.6,3,4,2.8,6.6
		C477.4,377.3,456.4,397.2,430.6,397.2z"/>
	<path class="st2" d="M476.6,345.6c-7.1-6.1-26.6-21-55.3-28.3c-3.7-0.9-7.5,1-9.2,4.5c-1.5,3-3.9,6.9-7.4,10.9c0,0,0,0,0,0
		c-1.1,1.3-2.3,2.5-3.7,3.8c-5.2,4.7-10.7,7.9-14.4,9.7c-3.1,1.6-4.8,5-4.4,8.5c2.8,21.6,19.7,38.7,41.1,42c-9.8-6.6-17-15.8-17-32
		V353c1.9-1.4,3.7-2.7,5.6-4.4c4.5-4,8.5-8.7,11.7-13.8c22,6.9,36.8,18.3,42.5,23.1c1.5,1.4,5.4,4.9,9.9,9.1
		c1.9-4.6,3.2-9.6,3.6-14.9C479.6,349.6,478.5,347.2,476.6,345.6z"/>
	<path class="st6" d="M362.3,440.3c-3.1,4.2-5,9.3-5,14.7v48.2c0,4.5,3.6,8.2,8.2,8.2h24.5v-41.1c0-5-2.3-9.6-6.1-12.7L362.3,440.3z
		"/>
</g>
<g>
	<path class="st0" d="M223.6,234.1v7.5c0,9.2,1.5,18.3,4.4,27l17,51H277V202h-21.4C237.9,202,223.6,216.4,223.6,234.1z"/>
	<path class="st1" d="M370,256.3l-18.1,63.3l-85.5-74.8c-11.8,0-21.4-9.6-21.4-21.4l0,0c0-17.7,14.4-32.1,32.1-32.1h74.8
		c11.8,0,21.4,9.6,21.4,21.4v20.1C373.3,240.8,372.2,248.7,370,256.3z"/>
	<rect x="266.3" y="351.7" class="st2" width="64.2" height="47.3"/>
	<path class="st3" d="M266.3,371.4c9.9,4,20.7,6.3,32.1,6.3c11.3,0,22.2-2.3,32.1-6.3v-19.6h-64.2L266.3,371.4L266.3,371.4z"/>
	<path class="st4" d="M382.1,392.4l-51.6-14.7L298.4,399l-32.1-21.3l-51.6,14.7c-13.8,3.9-23.3,16.5-23.3,30.8v78.2
		c0,5.9,4.8,10.7,10.7,10.7h192.5c5.9,0,10.7-4.8,10.7-10.7v-78.2C405.3,408.9,395.9,396.3,382.1,392.4z"/>
	<polygon class="st7" points="309.1,512.1 287.7,512.1 293.1,399.1 303.8,399.1 	"/>
	<path class="st5" d="M298.4,362.4L298.4,362.4c-35.4,0-64.2-28.7-64.2-64.2v-12.5c0-5.7,2.3-11.1,6.3-15.1l19.4-19.4
		c4.1-4.1,9.7-6.5,15.5-6.3c34.2,1.1,64.4,8.4,81,24.6c4,4,6.2,9.5,6.2,15.1v13.6C362.6,333.7,333.9,362.4,298.4,362.4z"/>
	<path class="st2" d="M266.3,288.4c0-12.3,10.4-22.1,22.7-21.4c21.6,1.4,53.6,5,73.3,14.4c-0.6-4.5-2.6-8.8-5.9-12
		c-16.5-16.2-46.8-23.5-81-24.6l0,0v0c-5.8-0.2-11.4,2.2-15.5,6.3l-19.4,19.4c-4,4-6.3,9.4-6.3,15.1v12.5
		c0,29.3,19.6,53.9,46.4,61.6c-8.9-11-14.3-25-14.3-40.2L266.3,288.4L266.3,288.4z"/>
	<path class="st6" d="M362.6,455.1c0-8.5,3.4-16.7,9.4-22.7l27.5-27.5c3.7,5.3,5.9,11.6,5.9,18.3v78.2c0,5.9-4.8,10.7-10.7,10.7
		h-32.1L362.6,455.1L362.6,455.1z"/>
	<path class="st8" d="M303.8,420.4h-10.7c-3,0-5.3-2.4-5.3-5.3v-16h21.4v16C309.1,418,306.7,420.4,303.8,420.4z"/>
	<g>
		<path class="st6" d="M298.4,399l-18.1,13.8c-3.1,2.4-7.6,1.4-9.5-2l-16.3-29.7l6.5-10c1.5-2.2,4.5-2.6,6.5-0.8L298.4,399z"/>
		<path class="st6" d="M298.4,399l18.1,13.8c3.1,2.4,7.6,1.4,9.5-2l16.3-29.7l-6.5-10c-1.5-2.2-4.5-2.6-6.5-0.8L298.4,399z"/>
	</g>
</g>
<g>
	<path class="st9" d="M259,421.5l-69.1-25.1l-49.5,16.5l-49.5-16.5l-69.1,25.1C8.7,426.3,0,438.7,0,452.6v51.2
		c0,4.6,3.7,8.3,8.3,8.3h264.3c4.6,0,8.3-3.7,8.3-8.3v-51.2C280.8,438.7,272.1,426.3,259,421.5z"/>
	<polygon class="st10" points="131.7,429.4 123.9,512 156.9,512 149,429.4 	"/>
	<path class="st11" d="M149.1,440.8h-17.3c-3.2,0-5.8-2.6-5.8-5.8v-22.1h28.9V435C154.8,438.2,152.3,440.8,149.1,440.8z"/>
	<path class="st12" d="M271.9,430c5.6,6,8.9,14,8.9,22.5v51.2c0,4.6-3.7,8.3-8.3,8.3h-41.3v-27.6c0-8.8,3.5-17.2,9.7-23.4L271.9,430
		z"/>
	<path class="st0" d="M231.2,226.1v-69.2c0-9.1-7.4-16.5-16.5-16.5h-99.1c-36.5,0-66.1,29.6-66.1,66.1v19.6c0,8.9,1.4,17.7,4.2,26.1
		l2.7,8.2c0.8,2.5,1.3,5.2,1.3,7.8v4.2H223v-4.2c0-2.7,0.4-5.3,1.3-7.8l2.7-8.2C229.8,243.8,231.2,235,231.2,226.1z"/>
	<path class="st1" d="M90.8,173.9c0,18.5,15,33.5,33.5,33.5h4.6l2.2,65H223v-4.2c0-2.7,0.4-5.3,1.3-7.8l2.7-8.2
		c2.8-8.4,4.2-17.2,4.2-26.1v-69.2c0-9.1-7.4-16.5-16.5-16.5h-90.3C105.9,140.4,90.8,155.4,90.8,173.9z"/>
	<rect x="90.8" y="338.6" class="st2" width="99.1" height="74.3"/>
	<path class="st3" d="M90.8,366.5c14.6,8.5,31.5,13.4,49.5,13.4s35-4.9,49.5-13.4v-27.9H90.8L90.8,366.5L90.8,366.5z"/>
	<g>
		<path class="st12" d="M140.4,412.9L114,439.2c-3.5,3.5-9.4,3.1-12.4-0.8l-27.3-36l7.1-15.1c2.1-4.4,7.6-6.1,11.8-3.5L140.4,412.9z
			"/>
		<path class="st12" d="M140.4,412.9l26.3,26.3c3.5,3.5,9.4,3.1,12.4-0.8l27.3-36l-7.1-15.1c-2.1-4.4-7.6-6.1-11.8-3.5L140.4,412.9z
			"/>
	</g>
	<path class="st5" d="M140.4,363.4L140.4,363.4c-45.6,0-82.6-37-82.6-82.6v-9.7c0-4.4,1.7-8.6,4.8-11.7l6.8-6.8
		c3.1-3.1,4.8-7.3,4.8-11.7v-19.8c0-3.8,2.6-7.1,6.3-8c19.5-4.6,80.3-15.5,121.7,14.9c2.7,2,4.2,5.2,4.2,8.6v4.4
		c0,4.4,1.7,8.6,4.8,11.7l6.8,6.8c3.1,3.1,4.8,7.3,4.8,11.7v9.7C223,326.4,186,363.4,140.4,363.4z"/>
	<path class="st2" d="M202.3,228c-29.1-21.4-67.7-22.3-94.9-19.4c-11.5,1.2-20.9,3.1-26.7,4.5c-3.7,0.9-6.3,4.2-6.3,8v19.8
		c0,4.4-1.7,8.6-4.8,11.7l-6.8,6.8c-3.1,3.1-4.8,7.3-4.8,11.7v9.7c0,42.2,31.7,77,72.6,81.9c-14.2-14.8-23.1-34.9-23.1-57.1v-60.4
		c0-8.4,6.2-15.4,14.5-16.4c19.8-2.5,56.1-4,84.6,12.1v-4.4C206.5,233.2,205,229.9,202.3,228z"/>
	<path class="st12" d="M8.9,430C3.3,436,0,444,0,452.6v51.2c0,4.6,3.7,8.3,8.3,8.3h41.3v-27.6c0-8.8-3.5-17.2-9.7-23.4L8.9,430z"/>
</g>
</svg>
