<?xml version="1.0" encoding="iso-8859-1"?>
<!-- Generator: Adobe Illustrator 21.0.0, SVG Export Plug-In . SVG Version: 6.00 Build 0)  -->
<svg version="1.1" id="Capa_1" xmlns="http://www.w3.org/2000/svg" xmlns:xlink="http://www.w3.org/1999/xlink" x="0px" y="0px"
	 viewBox="0 0 512 512" style="enable-background:new 0 0 512 512;" xml:space="preserve">
<polygon style="fill:#EBEBEB;" points="381.221,79.555 350.253,0 51.2,0 51.2,512 460.8,512 460.8,110.523 "/>
<path style="fill:#FFFFFF;" d="M276.22,202.683c17.453,0,31.595,14.142,31.595,31.595s-14.142,31.595-31.595,31.595
	s-31.595-14.142-31.595-31.595S258.767,202.683,276.22,202.683z"/>
<path style="fill:#A6E2E3;" d="M398.178,168.452V373.82H113.822V168.452H398.178z"/>
<g>
	<path style="fill:#FFA638;" d="M276.22,202.683c17.453,0,31.595,14.142,31.595,31.595s-14.142,31.595-31.595,31.595
		s-31.595-14.142-31.595-31.595S258.767,202.683,276.22,202.683z"/>
	<polygon style="fill:#FFA638;" points="398.178,358.022 398.178,444.908 240.368,444.908 240.368,360.777 334.148,286.933 	"/>
</g>
<polygon style="fill:#ED8300;" points="240.368,360.777 294.642,444.908 113.822,444.908 113.822,373.819 189.334,281.671 "/>
<polygon style="fill:#CCCCCC;" points="460.8,110.523 350.253,110.523 350.253,0 "/>
<g>
</g>
<g>
</g>
<g>
</g>
<g>
</g>
<g>
</g>
<g>
</g>
<g>
</g>
<g>
</g>
<g>
</g>
<g>
</g>
<g>
</g>
<g>
</g>
<g>
</g>
<g>
</g>
<g>
</g>
</svg>
