<svg id="Layer_1" data-name="Layer 1" xmlns="http://www.w3.org/2000/svg" xmlns:xlink="http://www.w3.org/1999/xlink" viewBox="0 0 525 525"><defs><style>.cls-1,.cls-2{fill:none;}.cls-2{stroke:#63c783;stroke-linecap:round;stroke-linejoin:round;stroke-width:3.65px;stroke-dasharray:0 8.78;}.cls-3{fill:#fdb400;}.cls-27,.cls-4{fill:#63c783;}.cls-5{font-size:51.13px;}.cls-5,.cls-7{fill:#fff;}.cls-24,.cls-25,.cls-5{font-family:Roboto-Medium, Roboto;}.cls-6{fill:#a6a6a6;}.cls-8{fill:#c7c7c7;}.cls-9{fill:#5bb574;}.cls-10{clip-path:url(#clip-path);}.cls-11{fill:#ffbe7e;}.cls-12{fill:#f9ab64;}.cls-13{fill:#edcd99;}.cls-14{fill:#5e523d;}.cls-15{fill:#d6d6d6;}.cls-16{fill:#e0724a;}.cls-17{fill:#ff8154;}.cls-18{fill:#f0f0f0;}.cls-19{fill:#4b5669;}.cls-20{fill:#616f87;}.cls-21{fill:#bf613f;}.cls-22{fill:#ebebeb;}.cls-23,.cls-24,.cls-25{fill:#999;}.cls-24{font-size:19.26px;}.cls-25{font-size:5.77px;}.cls-26{letter-spacing:-0.01em;}.cls-27{font-size:47.1px;font-family:Roboto-Bold, Roboto;font-weight:700;}</style><clipPath id="clip-path"><path class="cls-1" d="M389.78,218.38a127.61,127.61,0,1,0-252.16,27.87,127.61,127.61,0,1,0,249.1,0A128,128,0,0,0,389.78,218.38Z"/></clipPath></defs><title>support</title><circle class="cls-2" cx="262.17" cy="281.63" r="184.47"/><path class="cls-3" d="M380.09,48l-.33.41a21.6,21.6,0,0,0-3,5.15l2.39,2.26a18.51,18.51,0,0,0-.93,5.09l-3,1.57a21.7,21.7,0,0,0,1.08,6l3.29.19a18.44,18.44,0,0,0,3,4.93l-1.28,3.09A21.68,21.68,0,0,0,386,80.41l2.69-2a18.44,18.44,0,0,0,5.5,1.68l1,3.15a21.7,21.7,0,0,0,6.1-.41l.79-3.32a18.51,18.51,0,0,0,4.71-2.14l2.77,1.77A21.6,21.6,0,0,0,413.79,75l.32-.42-1.55-3.1a18.45,18.45,0,0,0,1.82-3.88l3.28-.43a21.6,21.6,0,0,0,.66-6.82L415.13,59a18.65,18.65,0,0,0-.84-3.41l2.28-2.48a21.44,21.44,0,0,0-3.86-5.95l-3.29,1q-.58-.54-1.22-1t-1.31-.93l.15-3.43a21.44,21.44,0,0,0-6.71-2.31l-1.85,2.81a18.64,18.64,0,0,0-3.51,0l-2.11-2.76a21.6,21.6,0,0,0-6.46,2.29l.38,3.29a18.45,18.45,0,0,0-3.32,2.71Zm24.65,3.5a12.93,12.93,0,1,1-18.15,2.24A12.93,12.93,0,0,1,404.73,51.53Z"/><path class="cls-3" d="M335.92,57l-.33.41a21.6,21.6,0,0,0-3,5.15L335,64.78a18.51,18.51,0,0,0-.93,5.09l-3,1.57a21.7,21.7,0,0,0,1.08,6l3.29.19a18.44,18.44,0,0,0,3,4.93l-1.29,3.09a21.69,21.69,0,0,0,4.71,3.68l2.69-2A18.44,18.44,0,0,0,350,89l1,3.15a21.7,21.7,0,0,0,6.1-.41l.79-3.32a18.51,18.51,0,0,0,4.71-2.14l2.77,1.77a21.6,21.6,0,0,0,4.27-4.15l.32-.42-1.55-3.1a18.45,18.45,0,0,0,1.82-3.88l3.28-.43a21.6,21.6,0,0,0,.66-6.82L371,67.92a18.64,18.64,0,0,0-.84-3.41L372.4,62a21.44,21.44,0,0,0-3.86-5.95l-3.29,1q-.58-.54-1.22-1t-1.31-.93l.15-3.43a21.44,21.44,0,0,0-6.71-2.31l-1.85,2.81a18.64,18.64,0,0,0-3.51,0l-2.11-2.76a21.6,21.6,0,0,0-6.46,2.29l.38,3.29a18.45,18.45,0,0,0-3.32,2.71Zm24.65,3.5a12.93,12.93,0,1,1-18.15,2.24A12.93,12.93,0,0,1,360.57,60.46Z"/><path class="cls-3" d="M382.14,93l-.33.41a21.6,21.6,0,0,0-3,5.15l2.39,2.26a18.51,18.51,0,0,0-.93,5.09l-3,1.57a21.7,21.7,0,0,0,1.08,6l3.29.19a18.44,18.44,0,0,0,3,4.93l-1.28,3.09a21.68,21.68,0,0,0,4.71,3.68l2.69-2a18.44,18.44,0,0,0,5.5,1.68l1,3.15a21.7,21.7,0,0,0,6.1-.41l.79-3.32a18.51,18.51,0,0,0,4.71-2.14l2.77,1.77a21.6,21.6,0,0,0,4.27-4.15l.32-.42-1.55-3.1a18.45,18.45,0,0,0,1.82-3.88l3.28-.43a21.6,21.6,0,0,0,.66-6.82L417.19,104a18.64,18.64,0,0,0-.84-3.41l2.28-2.48a21.44,21.44,0,0,0-3.86-5.95l-3.29,1q-.58-.54-1.22-1t-1.31-.93l.15-3.43a21.44,21.44,0,0,0-6.71-2.31l-1.85,2.81a18.64,18.64,0,0,0-3.51,0l-2.11-2.76a21.6,21.6,0,0,0-6.46,2.29l.38,3.29a18.45,18.45,0,0,0-3.32,2.71Zm24.65,3.5a12.93,12.93,0,1,1-18.15,2.24A12.93,12.93,0,0,1,406.79,96.54Z"/><path class="cls-3" d="M15.56,215c-4.25-19.62,14.61-40.35,42.13-46.31s53.26,5.12,57.51,24.74-14.61,40.35-42.13,46.31a68.94,68.94,0,0,1-19.64,1.43l-15.05,12.1,3.06-14.22C28,235.17,18.06,226.58,15.56,215Z"/><path class="cls-4" d="M139.85,173.13c-4.25-19.62-30-30.69-57.51-24.74S36,175.09,40.21,194.71s30,30.69,57.51,24.74a68.94,68.94,0,0,0,18.47-6.82l18.71,4.79-8.67-11.68C136.83,196.65,142.35,184.7,139.85,173.13Z"/><text class="cls-5" transform="translate(82.4 201.14) rotate(-12.22)">?</text><rect class="cls-6" x="76.27" y="344.8" width="43.35" height="73.9" rx="9.26" ry="9.26" transform="translate(-42.25 13.42) rotate(-6.45)"/><rect class="cls-7" x="75.89" y="341.41" width="43.35" height="73.9" rx="9.26" ry="9.26" transform="translate(-41.87 13.35) rotate(-6.45)"/><rect class="cls-8" x="78.63" y="350.13" width="37.87" height="56.47" transform="translate(-41.88 13.35) rotate(-6.45)"/><circle class="cls-8" cx="101.25" cy="410.95" r="2.87" transform="translate(-45.51 13.97) rotate(-6.45)"/><path class="cls-3" d="M459.75,274.15,453,280.32l12.09-.74A43.24,43.24,0,0,0,475.69,286c16.24,6.92,33.41,3.14,38.35-8.44s-4.23-26.58-20.47-33.51-33.41-3.14-38.35,8.44C452.31,259.28,454.3,267.3,459.75,274.15Zm36.48-3.81a4.16,4.16,0,1,1,2.2,5.46A4.16,4.16,0,0,1,496.23,270.34Zm-14.73-6.27a4.16,4.16,0,1,1,2.2,5.46A4.16,4.16,0,0,1,481.51,264.06Zm-14.73-6.27a4.16,4.16,0,1,1,2.2,5.46A4.16,4.16,0,0,1,466.78,257.79Z"/><path class="cls-3" d="M24.27,272.14A31.59,31.59,0,1,0,67,285.26,31.62,31.62,0,0,0,24.27,272.14Zm38.57,13.25-9.14,4.84c-5-8.85-11.67-15.24-18-17.92A28,28,0,0,1,62.84,285.39Zm-38.36-9L36.6,299.29l-10.67,5.65C20.18,293.14,19.63,281,24.49,276.43ZM38.3,302.51l12.11,22.86c-6.51,1.44-16.24-5.82-22.78-17.21Zm15.33,21.16L41.52,300.81l10.67-5.65C57.93,307,58.48,319.09,53.63,323.67ZM39.81,297.59,27.7,274.73c6.51-1.44,16.24,5.82,22.78,17.21ZM18,281.7c-1.33,6.73.23,15.81,4.72,24.95l-9.14,4.84A28,28,0,0,1,18,281.7Zm-2.72,33,9.14-4.84c5,8.85,11.67,15.24,18,17.92A28,28,0,0,1,15.27,314.71Zm44.86,3.69c1.33-6.73-.23-15.81-4.72-25l9.14-4.84A28,28,0,0,1,60.13,318.4Z"/><rect class="cls-9" x="415.97" y="314.28" width="56.22" height="71.47" rx="8.64" ry="8.64" transform="translate(132.69 -121.95) rotate(18.34)"/><path class="cls-4" d="M454.19,378.26l18.68-56.34-38.24-12.68a6.31,6.31,0,0,0-8,4l-18.52,55.87a6.31,6.31,0,0,0,4,8l41.38,13.72a6.31,6.31,0,0,0,8-4l1.83-5.51Z"/><path class="cls-9" d="M428.41,321l-7.77-2.58a1.63,1.63,0,0,1-1-2.06h0a1.63,1.63,0,0,1,2.06-1l7.77,2.58a1.63,1.63,0,0,1,1,2.06h0A1.63,1.63,0,0,1,428.41,321Z"/><path class="cls-9" d="M426.22,327.54,418.45,325a1.63,1.63,0,0,1-1-2.06h0a1.63,1.63,0,0,1,2.06-1l7.77,2.58a1.63,1.63,0,0,1,1,2.06h0A1.63,1.63,0,0,1,426.22,327.54Z"/><path class="cls-9" d="M424,334.13l-7.77-2.58a1.63,1.63,0,0,1-1-2.06h0a1.63,1.63,0,0,1,2.06-1l7.77,2.58a1.63,1.63,0,0,1,1,2.06h0A1.63,1.63,0,0,1,424,334.13Z"/><path class="cls-9" d="M421.86,340.72l-7.77-2.58a1.63,1.63,0,0,1-1-2.06h0a1.63,1.63,0,0,1,2.06-1l7.77,2.58a1.63,1.63,0,0,1,1,2.06h0A1.63,1.63,0,0,1,421.86,340.72Z"/><path class="cls-9" d="M419.67,347.31l-7.77-2.58a1.63,1.63,0,0,1-1-2.06h0a1.63,1.63,0,0,1,2.06-1l7.77,2.58a1.63,1.63,0,0,1,1,2.06h0A1.63,1.63,0,0,1,419.67,347.31Z"/><path class="cls-9" d="M417.49,353.9l-7.77-2.58a1.63,1.63,0,0,1-1-2.06h0a1.63,1.63,0,0,1,2.06-1l7.77,2.58a1.63,1.63,0,0,1,1,2.06h0A1.63,1.63,0,0,1,417.49,353.9Z"/><path class="cls-9" d="M415.31,360.48l-7.77-2.58a1.63,1.63,0,0,1-1-2.06h0a1.63,1.63,0,0,1,2.06-1l7.77,2.58a1.63,1.63,0,0,1,1,2.06h0A1.63,1.63,0,0,1,415.31,360.48Z"/><path class="cls-9" d="M413.12,367.07l-7.77-2.58a1.63,1.63,0,0,1-1-2.06h0a1.63,1.63,0,0,1,2.06-1l7.77,2.58a1.63,1.63,0,0,1,1,2.06h0A1.63,1.63,0,0,1,413.12,367.07Z"/><path class="cls-7" d="M449.62,367.56h0S449.62,367.59,449.62,367.56Z"/><path class="cls-7" d="M442.33,331.2s0,0,0,0Z"/><path class="cls-7" d="M433.63,334.5a14.12,14.12,0,0,0-2.55,9.32,31.61,31.61,0,0,0,1.12,6.55,29.24,29.24,0,0,1,.68,3.4,31.6,31.6,0,0,0,1.49,6.48,14.12,14.12,0,0,0,5.94,7.62c2.86,1.62,6.7,1.71,9.29-.3,0,0,0-.08,0,0l-1.89-9.45a7.31,7.31,0,0,0-4.82.21,27.18,27.18,0,0,1-3.2-16,7.31,7.31,0,0,0,4.53-1.66l-1.89-9.45c0,.05,0,0,0,0C439.15,330.34,435.64,331.9,433.63,334.5Z"/><polygon class="cls-3" points="192.43 77.29 208.71 50.22 207.21 47.05 159.69 69.5 161.19 72.67 192.43 77.29"/><polygon class="cls-3" points="193.42 79.38 162.18 74.77 175.16 102.26 222.69 79.81 209.7 52.32 193.42 79.38"/><g class="cls-10"><rect class="cls-11" x="226.18" y="239.3" width="71.98" height="82.74"/><path class="cls-12" d="M226.18,285.36a36.31,36.31,0,0,0,7.57,6.14l20.33,12.35a36.35,36.35,0,0,0,37.75,0l6.33-3.85V239.3h-72Z"/><path class="cls-13" d="M216.72,249.18c-6.66-2.34-10.17-9.82-13-16.61-2.59-6.25-5.21-12.64-5.74-19.43-.24-3.06.12-6.53,2.36-8.49a7,7,0,0,1,6.45-1.17,21.25,21.25,0,0,1,6.07,3.15C224.84,214.57,222.64,235.67,216.72,249.18Z"/><path class="cls-13" d="M311,247.88c6.66-2.34,10.17-9.82,13-16.61,2.59-6.25,5.21-12.64,5.74-19.43.24-3.06-.12-6.53-2.36-8.49a7,7,0,0,0-6.45-1.17,21.24,21.24,0,0,0-6.07,3.15C302.85,213.27,305,234.36,311,247.88Z"/><path class="cls-11" d="M302.18,281.37l-19.57,12.52a33.49,33.49,0,0,1-36.35,0L226.7,281.37a37.32,37.32,0,0,1-16.82-31.51V172.39H319v77.47A37.32,37.32,0,0,1,302.18,281.37Z"/><path class="cls-14" d="M316.08,231.43c-.43-8.67-2.75-17.79-4.89-26.17A171.69,171.69,0,0,1,226.41,178a82.88,82.88,0,0,1-8.07,34.44c-3.11,6.48-7.2,13.14-6.37,20.35-3-6.61-5.41-12.65-8.38-19.26-3.49-7.79-7-15.65-8.89-24s-2-17.45,1.15-25.4a30.19,30.19,0,0,1,21.47-18.35c6.27-11.27,17.64-19.79,29.6-23.25s24.62-3.21,36.94-1.66c14.82,1.86,30.73,6.43,39.49,19.16,6.15,8.95,7.7,20.52,7.64,31.57A127.45,127.45,0,0,1,316.08,231.43Z"/><path class="cls-15" d="M262.17,316.58l-35.94-19.09L215.89,307,187,319.4a65.6,65.6,0,0,0-36.25,39.13L145,400.91H262.17Z"/><path class="cls-15" d="M262.17,316.58l35.94-19.09L308.45,307l28.86,12.37a65.6,65.6,0,0,1,36.25,39.13l5.8,42.38H262.17Z"/><polygon class="cls-16" points="262.17 324.31 244.47 390.61 248 400.91 276.35 400.91 279.91 390.49 262.17 324.31"/><path class="cls-17" d="M253.51,335.57l-.58-1a10,10,0,0,1,8.66-15h1.16a10,10,0,0,1,8.66,15l-.58,1A10,10,0,0,1,253.51,335.57Z"/><polygon class="cls-18" points="308.45 307.04 320.17 312.06 294.93 362.72 262.17 316.58 298.11 297.49 308.45 307.04"/><path class="cls-19" d="M379.36,400.91h-103L308.45,307l28.86,12.37a65.6,65.6,0,0,1,36.25,39.13Z"/><path class="cls-20" d="M335.85,318.78c-12.81,12.42-25,24.06-25,24.06L322,354l-31.45,46.94H276.35L308.45,307Z"/><polygon class="cls-18" points="215.89 307.04 204.18 312.06 229.41 362.72 262.17 316.58 226.23 297.49 215.89 307.04"/><path class="cls-19" d="M145,400.91H248L215.89,307,187,319.4a65.6,65.6,0,0,0-36.25,39.13Z"/><path class="cls-20" d="M188.49,318.78c12.81,12.42,25,24.06,25,24.06L202.36,354l31.45,46.94H248L215.89,307Z"/><path class="cls-21" d="M201.62,247.88h-8V201.06a70,70,0,0,1,140,0V246h-8V201.06a62.06,62.06,0,1,0-124.13,0Z"/><path class="cls-17" d="M197.87,200.91h0a0,0,0,0,1,0,0v47.94a0,0,0,0,1,0,0h0a14.44,14.44,0,0,1-14.44-14.44V215.35a14.44,14.44,0,0,1,14.44-14.44Z"/><rect class="cls-21" x="197.87" y="197.08" width="11.68" height="55.6" rx="4.49" ry="4.49"/><path class="cls-21" d="M271.19,288.32a4,4,0,0,1-1.15-7.79l14.34-4.35a64.41,64.41,0,0,0,42.81-42.43,4,4,0,0,1,7.59,2.38,72.35,72.35,0,0,1-48.1,47.67l-14.34,4.35A4,4,0,0,1,271.19,288.32Z"/><path class="cls-17" d="M344,200.91h0a0,0,0,0,1,0,0v47.94a0,0,0,0,1,0,0h0A14.44,14.44,0,0,1,329.6,234.4V215.35A14.44,14.44,0,0,1,344,200.91Z" transform="translate(673.64 449.76) rotate(-180)"/><rect class="cls-21" x="317.92" y="197.08" width="11.68" height="55.6" rx="4.49" ry="4.49" transform="translate(647.52 449.76) rotate(-180)"/></g><circle class="cls-22" cx="415.69" cy="186" r="35.71" transform="translate(137.17 546.31) rotate(-76.4)"/><circle class="cls-7" cx="415.69" cy="186" r="29.8" transform="translate(137.17 546.31) rotate(-76.4)"/><path class="cls-23" d="M392.93,180.49l0-.1-3.81-.92,0,.1a27.61,27.61,0,0,0-.54,2.92l3.84.93A23.62,23.62,0,0,1,392.93,180.49Z"/><path class="cls-23" d="M438.45,191.51a23.62,23.62,0,0,1-.89,2.84l3.84.93a27.63,27.63,0,0,0,.86-2.85l0-.1-3.81-.92Z"/><path class="cls-23" d="M420.52,159.1l-.92,3.82c.53.09,1.07.19,1.6.32s.93.25,1.39.39l.92-3.82q-.69-.2-1.39-.38C421.59,159.3,421.05,159.19,420.52,159.1Z"/><path class="cls-23" d="M410.67,212.87l.92-3.82c-.47-.08-.94-.18-1.41-.29s-1.05-.28-1.57-.44l-.92,3.82c.52.16,1,.31,1.57.43S410.2,212.79,410.67,212.87Z"/><text class="cls-24" transform="translate(395.46 187.44) rotate(13.6)">24/7</text><text class="cls-25" transform="translate(395.73 194.4) rotate(13.6)">Hours</text><text class="cls-25" transform="translate(419.14 200.06) rotate(13.6)">D<tspan class="cls-26" x="3.79" y="0">a</tspan><tspan x="6.89" y="0">ys</tspan></text><path class="cls-3" d="M117.41,443.72c-17.24,7.34-27,23.26-21.73,35.55,3.09,7.24,10.68,11.61,19.93,12.47l-.22,9.68,8.32-9.79a45.88,45.88,0,0,0,12.66-3.4c17.24-7.34,27-23.26,21.73-35.55S134.64,436.38,117.41,443.72Zm16.8,34.12-4.61,2.3-2.16-4.33,4.61-2.3Zm-2.8-18.06a18.91,18.91,0,0,1-1.61,5.41,4.76,4.76,0,0,0-.45,2.43,9.47,9.47,0,0,0,1,2.59l-4.52,2.26a10,10,0,0,1-1.29-4.11,12.35,12.35,0,0,1,1.21-4.19,18.8,18.8,0,0,0,1-3.86,5.66,5.66,0,0,0-.57-3.28,4.28,4.28,0,0,0-2.37-2.31,4.16,4.16,0,0,0-3.28.39,4.6,4.6,0,0,0-2.2,2.16,3.34,3.34,0,0,0,.17,3l-4.35,2.17-.11-.08a6.86,6.86,0,0,1-.35-6.27,10.1,10.1,0,0,1,5-4.79,9.74,9.74,0,0,1,7.08-1.05,7.93,7.93,0,0,1,4.94,4.43A8.55,8.55,0,0,1,131.4,459.79Z"/><path class="cls-3" d="M264,14.6h0a23.87,23.87,0,0,0-20.67,35.8L264,86.2l20.67-35.8A23.87,23.87,0,0,0,264,14.6Zm15.3,32.7h0a17.66,17.66,0,0,1-30.59,0h0A17.66,17.66,0,0,1,264,20.81h0A17.66,17.66,0,0,1,279.26,47.3Z"/><path class="cls-3" d="M444.55,440.88h0S444.58,440.86,444.55,440.88Z"/><path class="cls-3" d="M403.81,467.94s0,0,0,0Z"/><path class="cls-3" d="M412.19,476.91c4.18,1.16,8.71.28,12.65-1.55a41.67,41.67,0,0,0,7.43-4.64,38.55,38.55,0,0,1,3.81-2.53,41.67,41.67,0,0,0,7.16-5c3.21-2.92,5.78-6.75,6.33-11.06s-1.25-9-5-11.19c0,0-.07.09,0,0L434,448a9.64,9.64,0,0,0,2.67,5.78,35.84,35.84,0,0,1-17.87,11.87,9.64,9.64,0,0,0-4.29-4.7l-10.59,7c.06,0,0,0-.05,0C404.35,472.25,408,475.75,412.19,476.91Z"/><path class="cls-3" d="M441.4,436.61a1.93,1.93,0,0,1-2.68-.49,22.44,22.44,0,1,0-36.92,25.51,1.93,1.93,0,0,1-3.17,2.19,26.29,26.29,0,1,1,43.26-29.89A1.93,1.93,0,0,1,441.4,436.61Z"/><path class="cls-3" d="M435.06,441a1.93,1.93,0,0,1-2.68-.49,14.73,14.73,0,1,0-24.24,16.75,1.93,1.93,0,1,1-3.17,2.19,18.59,18.59,0,1,1,30.58-21.13A1.93,1.93,0,0,1,435.06,441Z"/><path class="cls-3" d="M429.52,444.82a1.93,1.93,0,0,1-2.68-.49,8,8,0,1,0-13.15,9.08,1.93,1.93,0,0,1-3.17,2.19A11.84,11.84,0,1,1,430,442.14,1.93,1.93,0,0,1,429.52,444.82Z"/><polygon class="cls-3" points="152.31 115.35 139.87 88.94 135.37 95.41 118.93 83.98 111.26 95.02 127.71 106.44 123.21 112.91 152.31 115.35"/><polygon class="cls-3" points="81.2 89.17 110.29 91.61 105.8 98.08 122.24 109.5 114.58 120.53 98.13 109.11 93.64 115.58 81.2 89.17"/><text class="cls-27" transform="translate(459.95 160.8)">@</text><rect class="cls-4" x="233.99" y="443.57" width="59.77" height="59.77" rx="29.89" ry="29.89"/><path class="cls-7" d="M248.36,467.71a1.37,1.37,0,0,0-1.36,1.39V487a1.38,1.38,0,0,0,1.36,1.39h6.89V467.71Z"/><path class="cls-4" d="M251.12,485.59a1.38,1.38,0,1,0-1.38-1.38,1.38,1.38,0,0,0,1.38,1.38Z"/><path class="cls-7" d="M270.79,467.71h9.91a2.06,2.06,0,0,1,0,4.13h-4.82v1.38h3.45a2.06,2.06,0,0,1,0,4.13H274.5v1.38h3.45a2.06,2.06,0,0,1,0,4.13h-4.82v1.38h2.06a2.06,2.06,0,1,1,0,4.13H256.62V467.71a7.22,7.22,0,0,0,3.86-1.38,9.77,9.77,0,0,0,3.53-3.71c2.15-4.09-.33-10,3.62-10s4.74,6.67,3.44,13.75l-.28,1.38Z"/></svg>