<svg xmlns="http://www.w3.org/2000/svg" viewBox="0 0 180 57.16"><title>Taurus Logo Correct</title><g id="bd3f3aa4-084f-4e3b-a303-c7854bd7f05a" data-name="Layer 2"><g id="a9a66068-1194-4f3c-97c5-1e08ccc818b5" data-name="Layer 1"><path d="M78.05,40.52H63.9V26L59,24.37V39.51c0,1.87.36,3.15,1.09,3.83s2.11,1,4.17,1H77.7c2.09,0,3.52-.34,4.26-1s1.13-2,1.13-3.82V24.37l-5,1.58Z" fill="#4db3e6"/><path d="M142.55,40.52H128.4V26l-4.91-1.58V39.51c0,1.87.36,3.15,1.08,3.83s2.12,1,4.18,1H142.2c2.09,0,3.52-.34,4.26-1s1.12-2,1.12-3.82V24.37l-5,1.58Z" fill="#010000"/><path d="M88.63,12.06c-9.9,8.53-22.15,10.57-27.35,4.53-2.24-2.6-3-4.43-2.15-8.48-1.62,4.86-1.3,9.4,1.33,12.46,5.2,6,17.45,4,27.35-4.54,5.61-4.84,9.27-10.74,10.43-16C96.67,4.71,93.51,7.85,88.63,12.06Z" fill="#4db3e6"/><polygon points="28.69 19.45 0.06 19.45 0.06 23.91 11.45 23.91 11.45 44.3 17.24 44.3 17.24 23.91 28.69 23.91 28.69 19.45" fill="#010000"/><path d="M37,24,24.89,44.3h5l2.56-4.47H45.88l2.57,4.47H54L41.74,24ZM34.53,36.12l4.58-8.46,4.75,8.46Z" fill="#010000"/><path d="M178.92,32.91c-.72-.67-2.12-1-4.2-1H161.5V27.63h14v2.14h4.28V28.39A4.35,4.35,0,0,0,178.61,25c-.75-.65-2.15-1-4.19-1h-12q-3.12,0-4.23,1c-.74.68-1.11,1.93-1.11,3.76V31c0,1.85.37,3.13,1.11,3.81s2.15,1,4.23,1h13.16v4.59h-15V38.12h-4.41v1.36c0,1.87.38,3.14,1.12,3.81s2.17,1,4.28,1h13.17c2.05,0,3.44-.33,4.18-1s1.1-1.94,1.1-3.81V36.72Q180,33.92,178.92,32.91Z" fill="#010000"/><path d="M107.73,36.63h2.78a5.8,5.8,0,0,0,3.67-.93,3.64,3.64,0,0,0,1.13-3V28a3.73,3.73,0,0,0-1.13-3,5.8,5.8,0,0,0-3.67-.93H92.22V44.3h4.91V27.5h11.28a3,3,0,0,1,1.76.38,1.48,1.48,0,0,1,.49,1.26v2.33a1.51,1.51,0,0,1-.49,1.26,3,3,0,0,1-1.76.37h-6.6v3.54l8.51,7.66h7.1Z" fill="#010000"/><rect x="142.29" y="52.84" width="37.53" height="0.88" fill="#4db3e6"/><rect y="52.84" width="35.02" height="0.88" fill="#4db3e6"/><path d="M41.85,57V50h6.74v1.14H43.77v1.62h4.64v1.14H43.77v1.89h5V57Z" fill="#4db3e6"/><path d="M92.75,53.49A3.13,3.13,0,0,1,94,50.78a6.14,6.14,0,0,1,3.68-.94,6.22,6.22,0,0,1,3.67.93,3.08,3.08,0,0,1,1.3,2.69,3.19,3.19,0,0,1-1.27,2.74,6.2,6.2,0,0,1-3.7.93,6.56,6.56,0,0,1-3.64-.88A3.08,3.08,0,0,1,92.75,53.49Zm2,0a2.26,2.26,0,0,0,.8,1.86,3.45,3.45,0,0,0,2.22.64,3.24,3.24,0,0,0,2.21-.67,2.58,2.58,0,0,0,0-3.69A3.35,3.35,0,0,0,97.74,51a3.3,3.3,0,0,0-2.23.67A2.28,2.28,0,0,0,94.72,53.49Z" fill="#4db3e6"/><path d="M111.73,50h4.13a5.66,5.66,0,0,1,2.94.57,1.85,1.85,0,0,1,.87,1.65,1.74,1.74,0,0,1-.91,1.58,5.08,5.08,0,0,1-2.52.53h-2.59V57h-1.92Zm1.92,1.14v2.05h2.24a2.79,2.79,0,0,0,1.38-.25.81.81,0,0,0,.42-.73.85.85,0,0,0-.52-.82,4,4,0,0,0-1.64-.25Z" fill="#4db3e6"/><path d="M128.35,57V50h6.74v1.14h-4.82v1.62h4.64v1.14h-4.64v1.89h5V57Z" fill="#4db3e6"/><path d="M59.46,50V55.8h4.93V50h1.75v5.49a1.81,1.81,0,0,1-.39,1.35,2.2,2.2,0,0,1-1.49.37H59.58a2.13,2.13,0,0,1-1.45-.36,1.89,1.89,0,0,1-.38-1.36V50Z" fill="#4db3e6"/><path d="M75.63,57V50h6.19a2,2,0,0,1,1.24.32,1.33,1.33,0,0,1,.38,1V53a1.29,1.29,0,0,1-.38,1,2,2,0,0,1-1.24.32h-.94L84.16,57H81.75l-2.88-2.64H77.29V57Zm5.48-5.79H77.29v1.93h3.82A1,1,0,0,0,81.7,53a.5.5,0,0,0,.17-.43v-.8a.53.53,0,0,0-.17-.44,1,1,0,0,0-.59-.13" fill="#4db3e6"/></g></g></svg>