<svg width="114" height="114" viewBox="0 0 114 114" fill="none" xmlns="http://www.w3.org/2000/svg">
<circle cx="57" cy="57" r="57" fill="#D9D9D9"/>
<path d="M56.9998 55C53.2415 55 50.0241 53.6618 47.3478 50.9854C44.6714 48.309 43.3332 45.0917 43.3332 41.3333C43.3332 37.575 44.6714 34.3576 47.3478 31.6813C50.0241 29.0049 53.2415 27.6667 56.9998 27.6667C60.7582 27.6667 63.9755 29.0049 66.6519 31.6813C69.3283 34.3576 70.6665 37.575 70.6665 41.3333C70.6665 45.0917 69.3283 48.309 66.6519 50.9854C63.9755 53.6618 60.7582 55 56.9998 55ZM29.6665 82.3333V72.7667C29.6665 70.8306 30.1653 69.0505 31.163 67.4264C32.1584 65.8046 33.4818 64.5667 35.1332 63.7125C38.6637 61.9472 42.2512 60.6227 45.8957 59.7389C49.5401 58.8574 53.2415 58.4167 56.9998 58.4167C60.7582 58.4167 64.4596 58.8574 68.104 59.7389C71.7484 60.6227 75.3359 61.9472 78.8665 63.7125C80.5179 64.5667 81.8413 65.8046 82.8367 67.4264C83.8343 69.0505 84.3332 70.8306 84.3332 72.7667V82.3333H29.6665Z" fill="#9F9F9F"/>
</svg>
