<svg height="496pt" viewBox="-64 0 496 496" width="496pt" xmlns="http://www.w3.org/2000/svg"><path d="m288 248c0 57.4375-46.5625 104-104 104s-104-46.5625-104-104 46.5625-104 104-104 104 46.5625 104 104zm0 0" fill="#57a4ff"/><path d="m312 80h-256l-48-72h352zm0 0" fill="#57a4ff"/><g fill="#004fac"><path d="m296 248c0-61.855469-50.144531-112-112-112s-112 50.144531-112 112 50.144531 112 112 112c61.828125-.066406 111.933594-50.171875 112-112zm-112 96c-53.019531 0-96-42.980469-96-96s42.980469-96 96-96 96 42.980469 96 96c-.058594 52.996094-43.003906 95.941406-96 96zm0 0"/><path d="m192 169.183594c0-4.417969-3.582031-8-8-8-33.003906-.105469-63.183594 18.597656-77.777344 48.199218-1.96875 3.957032-.355468 8.761719 3.601563 10.730469s8.757812.355469 10.726562-3.601562c11.898438-24.15625 36.523438-39.417969 63.449219-39.328125 4.417969 0 8-3.582032 8-8zm0 0"/><path d="m106.152344 233.335938c-2.121094-.207032-4.238282.449218-5.867188 1.824218-1.628906 1.371094-2.636718 3.347656-2.789062 5.472656-.207032 2.398438-.3125 4.878907-.3125 7.367188 0 1.03125 0 2.0625.054687 3.089844.144531 4.3125 3.683594 7.738281 8 7.734375h.273438c4.417969-.148438 7.875-3.847657 7.726562-8.265625 0-.847656 0-1.695313 0-2.550782 0-2.023437.089844-4 .257813-6.007812.183594-2.125-.488282-4.234375-1.867188-5.863281-1.378906-1.625-3.351562-2.632813-5.476562-2.800781zm0 0"/><path d="m216 224c4.417969 0 8-3.582031 8-8s-3.582031-8-8-8h-24v-8c0-4.417969-3.582031-8-8-8s-8 3.582031-8 8v8h-24c-4.417969 0-8 3.582031-8 8v32c0 4.417969 3.582031 8 8 8h56v16h-56c-4.417969 0-8 3.582031-8 8s3.582031 8 8 8h24v8c0 4.417969 3.582031 8 8 8s8-3.582031 8-8v-8h24c4.417969 0 8-3.582031 8-8v-32c0-4.417969-3.582031-8-8-8h-56v-16zm0 0"/><path d="m367.929688 7.625c-.042969-.789062-.203126-1.566406-.472657-2.304688-.070312-.230468-.152343-.453124-.25-.671874-.0625-.136719-.078125-.289063-.152343-.425782-.363282-.667968-.820313-1.28125-1.359376-1.824218-.078124-.078126-.175781-.125-.253906-.207032-.597656-.546875-1.269531-1-2-1.34375-.226562-.105468-.441406-.199218-.671875-.289062-.882812-.351563-1.820312-.5390628-2.769531-.558594h-352c-.949219.0195312-1.886719.207031-2.769531.558594-.230469.089844-.445313.183594-.671875.289062-.726563.34375-1.398438.796875-1.992188 1.34375-.085937.082032-.183594.128906-.261718.207032-.539063.542968-.996094 1.15625-1.359376 1.824218-.074218.136719-.089843.289063-.152343.425782-.097657.21875-.179688.441406-.25.671874-.269531.738282-.429688 1.515626-.4726565 2.304688 0 .136719-.0703125.238281-.0703125.375v446.273438c.0273438 23.035156 18.699219 41.703124 41.734375 41.726562h284.53125c23.035156-.023438 41.707031-18.691406 41.734375-41.726562v-446.273438c0-.136719-.070312-.238281-.070312-.375zm-22.875 8.375-37.335938 56h-247.4375l-37.335938-56zm-18.789063 464h-284.53125c-14.203125-.011719-25.714844-11.523438-25.734375-25.726562v-419.875l33.34375 50.015624c1.480469 2.234376 3.976562 3.582032 6.65625 3.585938h256c2.675781 0 5.171875-1.335938 6.65625-3.558594l33.34375-50.042968v419.875c-.019531 14.203124-11.53125 25.714843-25.734375 25.726562zm0 0"/><path d="m328 440h-8c-4.417969 0-8 3.582031-8 8s3.582031 8 8 8h8c4.417969 0 8-3.582031 8-8s-3.582031-8-8-8zm0 0"/><path d="m296 440h-64c-4.417969 0-8 3.582031-8 8s3.582031 8 8 8h64c4.417969 0 8-3.582031 8-8s-3.582031-8-8-8zm0 0"/></g></svg>