<svg id="Capa_1" enable-background="new 0 0 512 512" height="512" viewBox="0 0 512 512" width="512" xmlns="http://www.w3.org/2000/svg"><path id="XMLID_1126_" d="m334.002 348v-165.87h96.561l51.436 51.436v114.434z" fill="#91def5"/><path id="XMLID_1125_" d="m436.738 388.003h45.261c11.046 0 20.001-8.955 20.001-20.001 0-11.046-8.955-20.001-20.001-20.001h-451.997c-11.047-.001-20.002 8.954-20.002 20 0 11.046 8.955 20.001 20.001 20.001h70.119 336.618z" fill="#b5bcc9"/><path id="XMLID_1124_" d="m374.002 182.13v108.873h107.997v-57.437l-51.436-51.436h-56.563" fill="#dff6fc"/><path id="XMLID_1122_" d="m308.937 84h-253.871c-13.843 0-25.065 11.222-25.065 25.065v238.935h304v-238.935c.001-13.843-11.221-25.065-25.064-25.065z" fill="#ffcb7c"/><circle id="XMLID_1087_" cx="140.122" cy="388" fill="#98a1b3" r="40"/><circle id="XMLID_1038_" cx="396.738" cy="388" fill="#98a1b3" r="40"/><path id="XMLID_205_" d="m140.122 378c-2.63 0-5.21 1.07-7.07 2.93-1.87 1.86-2.93 4.44-2.93 7.07s1.06 5.21 2.93 7.07c1.86 1.86 4.44 2.93 7.07 2.93s5.21-1.07 7.07-2.93c1.859-1.86 2.93-4.44 2.93-7.07s-1.07-5.21-2.93-7.07-4.44-2.93-7.07-2.93z"/><path id="XMLID_216_" d="m396.742 378c-2.641 0-5.21 1.07-7.07 2.93-1.87 1.86-2.93 4.44-2.93 7.07s1.06 5.21 2.93 7.07c1.86 1.86 4.43 2.93 7.07 2.93 2.63 0 5.2-1.07 7.069-2.93 1.86-1.86 2.931-4.44 2.931-7.07s-1.07-5.21-2.931-7.07c-1.869-1.86-4.439-2.93-7.069-2.93z"/><path id="XMLID_235_" d="m491.999 339.72v-106.154c0-2.652-1.054-5.196-2.929-7.071l-51.437-51.437c-1.876-1.875-4.419-2.929-7.071-2.929h-86.561v-63.065c0-19.334-15.73-35.064-35.065-35.064h-253.87c-19.335 0-35.064 15.73-35.064 35.064v73.103c0 5.523 4.478 10 10 10s10-4.477 10-10v-73.103c0-8.306 6.758-15.064 15.064-15.064h253.87c8.307 0 15.065 6.758 15.065 15.064v73.065 155.871h-284v-65.833c0-5.523-4.478-10-10-10s-10 4.477-10 10v67.553c-11.639 4.128-20.001 15.244-20.001 28.281 0 16.542 13.459 30.001 30.002 30.001h61.126c4.646 22.794 24.848 39.998 48.993 39.998 24.146 0 44.348-17.205 48.994-40h158.63c4.646 22.795 24.847 40 48.994 40 24.146 0 44.347-17.204 48.993-39.998h36.268c16.543 0 30.001-13.458 30.001-30.001-.001-13.037-8.362-24.153-20.002-28.281zm-107.997-58.718v-18.828l56.231-56.232 18.091 18.091-56.969 56.969zm0-88.873h41.76l-41.76 41.76zm87.997 46.515v42.358h-42.358zm-127.997-46.515h20v98.873c0 5.523 4.478 10 10 10h97.997v36.998h-127.997zm3.743 185.871h-158.63c-1.505-7.386-4.644-14.183-9.021-20h153.908 22.764c-4.377 5.817-7.516 12.614-9.021 20zm-327.745-9.999c0-5.514 4.487-10.001 10.002-10.001h70.146c-4.377 5.818-7.517 12.616-9.021 20.002h-61.125c-5.515 0-10.002-4.486-10.002-10.001zm120.121 49.999c-16.542 0-30-13.458-30-30s13.458-30 30-30 30 13.458 30 30-13.458 30-30 30zm256.617 0c-16.542 0-30-13.458-30-30s13.458-30 30-30 30 13.458 30 30-13.458 30-30 30zm85.261-39.998h-36.267c-1.505-7.387-4.644-14.185-9.021-20.002h45.288c5.515 0 10.001 4.487 10.001 10.001s-4.486 10.001-10.001 10.001z"/><path id="XMLID_248_" d="m30.002 237.17c2.63 0 5.21-1.07 7.07-2.93 1.859-1.87 2.93-4.44 2.93-7.07s-1.07-5.21-2.93-7.07c-1.86-1.87-4.44-2.93-7.07-2.93s-5.21 1.06-7.07 2.93c-1.859 1.86-2.93 4.44-2.93 7.07s1.07 5.2 2.93 7.07c1.86 1.86 4.44 2.93 7.07 2.93z"/></svg>